<svg id="Calque_1" data-name="Calque 1" xmlns="http://www.w3.org/2000/svg" viewBox="0 0 150 150"><defs><style>.cls-1{fill:#194092;}.cls-2{fill:#fefefe;}.cls-3{fill:#e30613;}</style></defs><title>english</title><path class="cls-1" d="M132,63.67V50.3c-9.11-1.06-13.67.59-22.78,5.67C118.36,56.23,122.92,57.26,132,63.67Z"/><path class="cls-1" d="M132,100V86.82c-9.16-6.44-13.74-7.46-22.89-7.7C118.4,84.52,125.05,92.09,132,100Z"/><path class="cls-1" d="M32.75,115.11c9,2.15,20.47.64,29.12-2.33,0-6.84,0-10.26,0-17.1C53.22,103.47,43.73,110.9,32.75,115.11Z"/><path class="cls-1" d="M117.76,35c-9.17-2.32-20.9-.82-29.71,2.24V54.63C96.84,46.71,106.54,39.14,117.76,35Z"/><path class="cls-1" d="M18,86.82c0,5.25,0,7.88,0,13.14,8.94,1,13.41-.54,22.34-5.45C31.38,94.15,26.91,93.1,18,86.82Z"/><path class="cls-1" d="M18,50.63c0,5.22,0,7.83,0,13C27,70,31.49,71,40.5,71.36,31.41,66,24.84,58.48,18,50.63Z"/><path class="cls-1" d="M61.87,46c-10.45,2.47-20.71,5-31.41,1.74A78.6,78.6,0,0,0,61.87,64.06C61.87,56.82,61.87,53.2,61.87,46Z"/><path class="cls-1" d="M88,104.07c8.91-3.1,20.83-4.59,30.09-2.14C108.45,95.19,99.65,89.52,88,86.67Z"/><path class="cls-2" d="M18,81.9v4.91c8.94,6.28,13.41,7.34,22.34,7.68C31.38,99.41,26.91,101,18,100c0,3.38,0,5.07,0,8.46h0c14.41,1.08,25.39-7.27,36.35-15.28,3-.64,4.53-1.05,7.55-1.94v1.06c-10.67,8.85-21.23,18-35.2,21a32.76,32.76,0,0,0,6.08,1.91c11-4.21,20.47-11.64,29.12-19.43,0,6.84,0,10.26,0,17.1,2.24-.66,3.36-1,5.61-1.77,0-10.6,0-15.9,0-26.51C48.64,90,35.9,91.14,18,81.9Z"/><path class="cls-2" d="M67.48,44.19c-2.24.75-3.36,1.11-5.61,1.77,0,7.24,0,10.86,0,18.1A78.6,78.6,0,0,1,30.47,47.7,35.16,35.16,0,0,1,18,41.59C28.36,53.66,39.39,64.42,54.69,69.9a53.28,53.28,0,0,1-9.28,1.37C34.18,65.36,26.13,56.92,18,47.42v3.21C24.84,58.48,31.41,66,40.5,71.36,31.49,71,27,70,18,63.67v4.91c17.93,9.23,30.67,8.14,49.51,2.6C67.48,60.38,67.48,55,67.48,44.19Z"/><path class="cls-2" d="M132,41.59v.54c-14.64-1.25-25.82,7.24-37,15.36-2.81.62-4.22,1-7,1.84V58c10.79-8.92,21.5-18.17,35.67-21a32.81,32.81,0,0,0-6-2C106.54,39.14,96.84,46.71,88,54.63V37.24c-2.24.66-3.36,1-5.61,1.78,0,10.8,0,16.19,0,27,19.23-5.67,31.62-6.68,49.59,2.57V81.9c-18-9.25-30.36-8.24-49.59-2.57,0,10.6,0,15.9,0,26.51,2.24-.75,3.36-1.11,5.61-1.78V86.67c11.61,2.85,20.41,8.53,30.09,15.25,5.56,1.4,8.34,2.58,13.9,6.49-10.69-12.29-21.22-21.93-36.66-27.84a53.15,53.15,0,0,1,9.28-1.36C115.85,85.1,123.88,93.51,132,103v5.42h0V100c-7-8-13.63-15.53-22.89-20.93,9.16.24,13.74,1.26,22.89,7.7V63.67c-9.11-6.41-13.67-7.43-22.78-7.7,9.11-5.08,13.67-6.73,22.78-5.67V41.59Z"/><path class="cls-3" d="M54.69,69.9C39.39,64.42,28.36,53.66,18,41.59v5.83c8.16,9.51,16.21,17.95,27.43,23.85A53.28,53.28,0,0,0,54.69,69.9Z"/><path class="cls-3" d="M104.65,79.21a53.15,53.15,0,0,0-9.28,1.36c15.45,5.91,26,15.54,36.66,27.84h0V103C123.88,93.51,115.85,85.1,104.65,79.21Z"/><path class="cls-3" d="M61.87,91.19c-3,.89-4.53,1.3-7.55,1.94-11,8-21.94,16.36-36.35,15.28h0a36.39,36.39,0,0,0,8.71,4.79h0c14-3,24.53-12.11,35.2-21Z"/><path class="cls-3" d="M88,59.32c2.81-.83,4.22-1.22,7-1.84,11.14-8.11,22.32-16.6,37-15.36v-.54A36.55,36.55,0,0,0,123.71,37C109.54,39.79,98.84,49,88,58Z"/><path class="cls-3" d="M132,81.9V68.58c-18-9.25-30.36-8.24-49.59-2.57,0-10.8,0-16.19,0-27-6,2-9,3.17-15,5.17,0,10.8,0,16.19,0,27C48.64,76.72,35.9,77.81,18,68.58V81.9C35.9,91.14,48.64,90,67.48,84.5c0,10.6,0,15.9,0,26.51,6-2,9-3.17,15-5.17,0-10.6,0-15.9,0-26.51C101.67,73.67,114.06,72.65,132,81.9Z"/></svg>